<?xml version="1.0" standalone="no"?>
<!DOCTYPE svg PUBLIC "-//W3C//DTD SVG 20010904//EN"
 "http://www.w3.org/TR/2001/REC-SVG-20010904/DTD/svg10.dtd">
<svg version="1.0" xmlns="http://www.w3.org/2000/svg"
 width="512.000000pt" height="512.000000pt" viewBox="0 0 512.000000 512.000000"
 preserveAspectRatio="xMidYMid meet">
<metadata>
Created by potrace 1.14, written by Peter Selinger 2001-2017
</metadata>
<g transform="translate(0.000000,512.000000) scale(0.100000,-0.100000)"
fill="#000000" stroke="none">
<path d="M1439 4197 c-96 -27 -165 -83 -212 -171 -16 -31 -22 -59 -22 -116 0
-65 4 -82 29 -128 37 -66 92 -117 165 -150 77 -36 202 -38 275 -4 138 63 216
196 192 326 l-7 36 -61 0 -62 0 39 40 c50 52 39 70 -29 47 -53 -18 -60 -7 -20
29 35 33 23 46 -28 28 -65 -23 -73 -19 -49 20 20 32 20 34 4 41 -35 14 -168
15 -214 2z"/>
<path d="M2945 4173 c-455 -57 -1056 -436 -1322 -836 -103 -155 -138 -246
-171 -457 -6 -36 -23 -117 -37 -180 -23 -99 -26 -128 -21 -207 15 -214 104
-406 269 -580 282 -297 724 -542 1355 -752 336 -112 808 -241 883 -241 31 0
31 1 15 19 -10 10 -38 24 -63 30 -65 17 -265 109 -418 193 -144 80 -435 270
-419 275 5 2 110 -29 234 -67 238 -75 501 -143 527 -138 8 2 -47 31 -123 66
-508 232 -919 510 -1172 794 -134 151 -256 330 -325 478 -42 90 -49 220 -18
336 31 115 110 268 195 381 172 229 402 406 836 643 126 70 133 75 105 81 -60
13 -186 9 -300 -11 -64 -11 -122 -20 -128 -20 -16 0 70 57 188 123 55 31 107
61 115 67 15 10 -134 12 -205 3z m254 -187 c-2 -2 -60 -37 -129 -77 -364 -211
-610 -411 -779 -634 -69 -91 -145 -249 -167 -348 -21 -90 -36 -83 -36 17 1
236 127 493 346 711 96 95 258 232 297 252 42 21 211 62 297 72 85 9 178 13
171 7z m-1681 -1504 c102 -238 287 -434 577 -617 124 -78 574 -301 660 -327
93 -28 128 -46 204 -107 120 -96 435 -285 645 -387 49 -24 83 -44 76 -44 -29
0 -481 134 -676 201 -811 277 -1326 620 -1504 1000 -51 110 -71 208 -72 351 0
69 3 132 7 139 5 8 15 -12 26 -54 10 -36 36 -106 57 -155z"/>
</g>
</svg>
